<svg width="1200" height="630" viewBox="0 0 1200 630" fill="none" xmlns="http://www.w3.org/2000/svg" role="img" aria-labelledby="title desc">
  <title id="title">Mnemic local-first memory kernel for coding agents</title>
  <desc id="desc">A launch card showing Mnemic as an auditable temporal memory graph for MCP-compatible coding agents.</desc>
  <rect width="1200" height="630" fill="#101418"/>
  <rect x="48" y="48" width="1104" height="534" rx="28" fill="#151B21" stroke="#2B3640" stroke-width="2"/>
  <path d="M78 548 C210 480 276 488 390 520 C520 556 650 526 770 468 C890 410 1016 414 1124 474" stroke="#355C7D" stroke-width="3" opacity="0.7"/>
  <path d="M74 124 C210 176 330 166 438 116 C574 54 706 80 836 142 C958 200 1044 196 1126 146" stroke="#3D7C5F" stroke-width="3" opacity="0.55"/>

  <g transform="translate(88 92)">
    <rect width="118" height="118" rx="24" fill="#E9F3EA"/>
    <path d="M32 86 V32 H48 L60 58 L72 32 H88 V86 H72 V56 L64 76 H56 L48 56 V86 H32Z" fill="#142019"/>
    <circle cx="96" cy="24" r="8" fill="#D7A83D"/>
  </g>

  <text x="238" y="128" fill="#F4F0E8" font-family="Inter, ui-sans-serif, system-ui, -apple-system, BlinkMacSystemFont, Segoe UI, sans-serif" font-size="78" font-weight="800">Mnemic</text>
  <text x="242" y="178" fill="#B9C4CC" font-family="Inter, ui-sans-serif, system-ui, -apple-system, BlinkMacSystemFont, Segoe UI, sans-serif" font-size="30" font-weight="500">Local-first memory kernel for coding agents</text>
  <text x="242" y="218" fill="#87939D" font-family="Inter, ui-sans-serif, system-ui, -apple-system, BlinkMacSystemFont, Segoe UI, sans-serif" font-size="22">MCP-native. Source-keyed. Temporal. Auditable. Reproducible.</text>

  <g transform="translate(88 274)">
    <rect width="475" height="214" rx="18" fill="#0C1116" stroke="#26323C"/>
    <circle cx="30" cy="30" r="7" fill="#D96C5F"/>
    <circle cx="54" cy="30" r="7" fill="#D7A83D"/>
    <circle cx="78" cy="30" r="7" fill="#5AA475"/>
    <text x="28" y="76" fill="#96A3AE" font-family="SFMono-Regular, ui-monospace, Menlo, Consolas, monospace" font-size="20">$ npm run demo</text>
    <text x="28" y="112" fill="#E9F3EA" font-family="SFMono-Regular, ui-monospace, Menlo, Consolas, monospace" font-size="20">sourceKeyMatched: true</text>
    <text x="28" y="146" fill="#E9F3EA" font-family="SFMono-Regular, ui-monospace, Menlo, Consolas, monospace" font-size="20">relationPaths: SUPPORTS</text>
    <text x="28" y="180" fill="#E9F3EA" font-family="SFMono-Regular, ui-monospace, Menlo, Consolas, monospace" font-size="20">snapshot: replayed event log</text>
  </g>

  <g transform="translate(636 270)">
    <line x1="106" y1="72" x2="230" y2="72" stroke="#53616C" stroke-width="3"/>
    <line x1="106" y1="72" x2="178" y2="164" stroke="#53616C" stroke-width="3"/>
    <line x1="230" y1="72" x2="314" y2="146" stroke="#53616C" stroke-width="3"/>
    <line x1="178" y1="164" x2="314" y2="146" stroke="#53616C" stroke-width="3"/>
    <circle cx="106" cy="72" r="48" fill="#E9F3EA" stroke="#82B08B" stroke-width="5"/>
    <circle cx="230" cy="72" r="42" fill="#EAF0F7" stroke="#7899B5" stroke-width="5"/>
    <circle cx="178" cy="164" r="40" fill="#FBF0D4" stroke="#D7A83D" stroke-width="5"/>
    <circle cx="314" cy="146" r="46" fill="#F2E6E1" stroke="#C77D66" stroke-width="5"/>
    <text x="77" y="78" fill="#18201A" font-family="Inter, ui-sans-serif, system-ui" font-size="17" font-weight="700">write</text>
    <text x="205" y="78" fill="#15202A" font-family="Inter, ui-sans-serif, system-ui" font-size="17" font-weight="700">recall</text>
    <text x="148" y="170" fill="#2A2314" font-family="Inter, ui-sans-serif, system-ui" font-size="17" font-weight="700">policy</text>
    <text x="282" y="152" fill="#2A1915" font-family="Inter, ui-sans-serif, system-ui" font-size="17" font-weight="700">replay</text>
  </g>

  <g transform="translate(88 526)">
    <rect width="156" height="38" rx="19" fill="#22313D"/>
    <text x="22" y="25" fill="#DCE6ED" font-family="Inter, ui-sans-serif, system-ui" font-size="16" font-weight="700">TypeScript</text>
    <rect x="174" width="116" height="38" rx="19" fill="#21382D"/>
    <text x="201" y="25" fill="#DCE6ED" font-family="Inter, ui-sans-serif, system-ui" font-size="16" font-weight="700">MCP</text>
    <rect x="308" width="142" height="38" rx="19" fill="#3A2F19"/>
    <text x="330" y="25" fill="#F7E8C0" font-family="Inter, ui-sans-serif, system-ui" font-size="16" font-weight="700">OpenAPI</text>
    <rect x="468" width="140" height="38" rx="19" fill="#39251F"/>
    <text x="492" y="25" fill="#F2D8CE" font-family="Inter, ui-sans-serif, system-ui" font-size="16" font-weight="700">SQLite</text>
    <rect x="626" width="176" height="38" rx="19" fill="#22313D"/>
    <text x="650" y="25" fill="#DCE6ED" font-family="Inter, ui-sans-serif, system-ui" font-size="16" font-weight="700">Benchmark</text>
    <rect x="820" width="160" height="38" rx="19" fill="#21382D"/>
    <text x="844" y="25" fill="#DCE6ED" font-family="Inter, ui-sans-serif, system-ui" font-size="16" font-weight="700">Local-first</text>
  </g>
</svg>
